PathFileType	4	(X/Y/Z)	C:\Users\Basilio\Documents\Thesis Gigler\squatting_fais\c3dfiles\075\SLS_back_pre4\markers_experimental.trc
DataRate	CameraRate	NumFrames	NumMarkers	Units	OrigDataRate	OrigDataStartFrame	OrigNumFrames
200.000000	200.000000	4	61	mm	200.000000	675	1351
Frame#	Time	FHD			LBHD			C7			T10			CLAV			LSHO			LUUPA			LMUPA			LDUPA			LLEP			LMEP			LRAD			LUL			LRFIN			RSHO			RUPA1			RMUPA			RDUPA			RLEP			RMEP			RRAD			RUL			RUFIN			LASI			RASI			USACR			LSACR			RSACR			LTHI1			LTHI2			LTHI3			LTHI4			LLFC			LMFC			LTIB1			LTIB2			LTIB3			LTIB4			LLMAL			LMMAL			LHEE			LMT1			LMT2			LMT5			RTHI			RTHI2			RTHI3			RTHI4			RLFC			RMFC			RTIB1			RTIB2			RTIB3			RTIB4			RLMAL			RMMAL			RHEE			RMT1			RMT2			RMT5			RBHD			
		X1	Y1	Z1	X2	Y2	Z2	X3	Y3	Z3	X4	Y4	Z4	X5	Y5	Z5	X6	Y6	Z6	X7	Y7	Z7	X8	Y8	Z8	X9	Y9	Z9	X10	Y10	Z10	X11	Y11	Z11	X12	Y12	Z12	X13	Y13	Z13	X14	Y14	Z14	X15	Y15	Z15	X16	Y16	Z16	X17	Y17	Z17	X18	Y18	Z18	X19	Y19	Z19	X20	Y20	Z20	X21	Y21	Z21	X22	Y22	Z22	X23	Y23	Z23	X24	Y24	Z24	X25	Y25	Z25	X26	Y26	Z26	X27	Y27	Z27	X28	Y28	Z28	X29	Y29	Z29	X30	Y30	Z30	X31	Y31	Z31	X32	Y32	Z32	X33	Y33	Z33	X34	Y34	Z34	X35	Y35	Z35	X36	Y36	Z36	X37	Y37	Z37	X38	Y38	Z38	X39	Y39	Z39	X40	Y40	Z40	X41	Y41	Z41	X42	Y42	Z42	X43	Y43	Z43	X44	Y44	Z44	X45	Y45	Z45	X46	Y46	Z46	X47	Y47	Z47	X48	Y48	Z48	X49	Y49	Z49	X50	Y50	Z50	X51	Y51	Z51	X52	Y52	Z52	X53	Y53	Z53	X54	Y54	Z54	X55	Y55	Z55	X56	Y56	Z56	X57	Y57	Z57	X58	Y58	Z58	X59	Y59	Z59	X60	Y60	Z60	X61	Y61	Z61	

676	3.375	-103.7322311401367	1389.022094726563	-760.8096313476564	-263.0280151367188	1298.248901367188	-838.6421508789065	-319.7412109375001	1210.666870117188	-783.7781982421877	-489.1737060546876	941.5755615234377	-791.8096313476565	-211.8915100097657	1101.554077148438	-783.147888183594	-219.2029418945313	1176.619384765625	-904.5942382812502	-82.03147888183595	1091.815795898438	-1009.875183105469	-52.94110107421876	1107.37890625	-973.752380371094	-14.98804664611817	1075.804443359375	-1009.248474121094	64.77492523193361	1054.586547851563	-997.2355957031252	37.99671936035157	983.7484130859377	-954.8460083007815	240.0674896240235	1048.554321289063	-812.4127197265627	293.9215698242188	1054.003662109375	-870.0950317382815	297.5781250000001	1070.2080078125	-762.8806152343751	-234.1182861328126	1157.203125	-650.8323974609376	-120.9560852050782	1069.451171875	-530.1224365234376	-82.3915481567383	1082.594848632813	-557.5861816406251	-54.96762084960939	1049.619384765625	-514.6130371093751	15.41965675354004	1035.5947265625	-512.4582519531251	13.85612297058106	961.9238281250002	-540.6424560546876	224.1808013916016	1046.360961914063	-703.4202270507814	248.1990814208985	1051.880737304688	-628.4595336914064	295.2426147460938	1084.703369140625	-729.5759277343751	-416.1393127441407	732.4575195312501	-923.6545410156252	-407.9191284179689	743.3958740234376	-674.2902832031251	-542.1033325195314	836.279235839844	-798.038513183594	-558.7247924804689	808.794860839844	-825.005798339844	-560.1430664062501	810.7415161132815	-767.7271728515626	-405.4508666992189	541.0964965820314	-1020.156188964844	-345.8498535156251	481.3643188476564	-1029.594116210938	-308.8911743164063	494.9258117675782	-999.608093261719	-352.2601928710938	421.4541931152345	-1039.505859375	-335.0129394531251	336.7935180664063	-1046.28076171875	-327.8978271484376	294.9703674316407	-913.6356201171877	-408.7427062988282	230.6504364013672	-1004.795349121094	-461.5827636718751	275.6332702636719	-1057.982299804688	-457.7200927734376	236.0010681152344	-1038.191040039063	-536.3077392578126	224.333969116211	-1010.063903808594	-686.7867431640626	264.6796264648438	-1041.063842773438	-669.7907104492189	257.4249877929688	-954.289245605469	-702.4760131835939	331.8337707519532	-1013.051208496094	-765.2885742187501	156.5318145751953	-920.5507812500002	-771.3170166015627	135.8949584960938	-965.3192138671877	-793.2277832031252	163.6923217773438	-1021.799926757813	-402.8330688476564	595.9575805664064	-611.1134643554689	-336.7800292968751	592.8146972656251	-616.3192749023439	-321.9301757812501	621.5084228515626	-627.6405639648439	-291.4564514160157	522.7655029296876	-625.3898925781251	-201.5177154541016	419.1605224609376	-671.5507202148439	-180.7193908691407	439.7160949707032	-792.088073730469	-194.203109741211	294.6916503906251	-766.1220092773439	-268.5640258789063	233.7135620117188	-713.6230468750001	-241.6983642578126	221.295639038086	-752.8118286132814	-274.5568847656251	197.3394012451172	-794.2751464843752	-387.7687377929689	109.6929321289063	-763.0675048828126	-355.2092590332032	140.4857940673828	-843.779968261719	-448.1579895019532	97.85945892333987	-823.7785644531252	-246.6735534667969	56.27560806274415	-835.7561035156252	-245.5622100830079	55.86944580078126	-793.247741699219	-283.1222839355469	34.7473373413086	-741.3011474609376	-224.4764251708985	1321.927490234375	-682.1691894531251	
677	3.38	-103.9644241333008	1390.108154296875	-760.7227172851564	-263.1735534667969	1299.270141601563	-838.6516113281252	-319.8892822265626	1211.756713867188	-783.7908935546877	-489.0498657226564	942.5346679687502	-791.8508300781252	-212.1247711181641	1102.7578125	-783.160583496094	-219.101303100586	1177.868530273438	-904.6726684570315	-82.6880340576172	1093.504028320313	-1009.827697753906	-52.42876052856447	1108.541625976563	-973.7487792968752	-15.01794242858887	1077.157592773438	-1009.233459472656	64.91780090332033	1056.044189453125	-997.2233886718752	38.26960372924805	984.9802246093752	-954.7664794921877	239.9994659423829	1050.0791015625	-812.294860839844	293.9044189453126	1055.598388671875	-870.1111450195315	297.7311401367188	1071.453247070313	-762.9523925781251	-234.2231445312501	1158.331787109375	-650.7512207031251	-120.9445114135742	1070.685791015625	-530.2633056640626	-82.53366851806642	1083.807250976563	-557.5584106445314	-55.01341247558595	1050.886962890625	-514.5823364257814	15.30019760131836	1036.912841796875	-512.4800415039064	13.76372623443604	963.265563964844	-540.6967163085939	223.9069976806641	1047.610107421875	-703.0958862304689	248.2241516113282	1053.467651367188	-628.3365478515626	295.2008972167969	1086.261474609375	-729.4839477539064	-415.7896728515626	733.3996582031251	-923.832214355469	-407.5253295898439	744.4092407226564	-674.2070312500001	-541.8483886718751	837.0529785156252	-798.0430908203127	-558.4890136718751	809.6238403320315	-825.0662231445315	-559.9695434570314	811.5335083007815	-767.8651123046876	-405.1263732910157	542.2871704101564	-1020.170837402344	-345.7274475097657	482.2678222656251	-1029.5068359375	-308.5088806152344	495.7713012695314	-999.4548950195315	-352.1771545410157	422.4627075195314	-1039.378662109375	-334.9814147949219	337.5594787597657	-1046.008544921875	-327.7842407226563	295.9877624511719	-913.5415649414065	-408.4938354492189	231.5058288574219	-1004.350524902344	-461.4048156738282	276.5687561035157	-1057.935424804688	-457.5849609375001	237.1224365234376	-1038.085083007813	-535.9967651367189	225.2014160156251	-1009.790832519531	-686.5128173828126	265.4267883300782	-1041.045288085938	-669.5875244140626	258.3014526367188	-954.2395629882815	-702.1235351562501	332.6687927246094	-1013.122436523438	-765.0765380859376	157.3677978515625	-920.7165527343752	-771.0554809570315	136.7350311279297	-965.2659301757815	-792.9734497070315	164.5821075439453	-1021.748413085938	-402.8479003906251	596.6351928710939	-611.1383666992189	-336.7586059570313	593.3382568359376	-616.3158569335939	-321.8584594726563	622.0554809570314	-627.7990112304689	-291.5891418457032	523.2355957031251	-625.4868774414064	-201.8116607666016	419.3808593750001	-671.5146484375001	-180.9793243408203	439.8822631835939	-792.1431884765627	-194.4365386962891	294.9746093750001	-766.1265869140626	-268.7076416015626	233.8013153076172	-713.6793212890626	-241.7909393310547	221.485092163086	-752.7681274414064	-274.7533874511719	197.4651184082032	-794.3236083984377	-387.8052062988282	109.697738647461	-763.1171875000001	-355.2671203613282	140.5088195800782	-843.8349609375002	-448.1932678222657	97.87038421630862	-823.8021240234377	-246.6371154785157	56.23274612426759	-835.7263183593752	-245.5556640625001	55.83079147338869	-793.2612304687502	-283.0773925781251	34.75479888916016	-741.2838134765626	-224.9104003906251	1323.227294921875	-681.7980346679689	
678	3.385	-104.1625518798828	1391.426513671875	-760.4848632812501	-263.6549682617188	1300.317260742188	-838.5668945312502	-320.0414428710938	1212.873657226563	-783.7906494140627	-488.9579162597657	943.3913574218752	-791.9158935546877	-212.075424194336	1103.948974609375	-783.1408691406252	-219.2145233154297	1179.0302734375	-904.588317871094	-83.47808837890626	1095.01123046875	-1009.883544921875	-52.4054527282715	1109.905151367188	-973.783386230469	-14.94369411468506	1078.64453125	-1009.321472167969	64.93138122558595	1057.610229492188	-997.1884765625002	38.28034210205079	986.494812011719	-954.8852539062502	246.5589447021485	1049.052001953125	-813.8220825195315	293.7001037597657	1057.307373046875	-870.0166015625002	297.2133483886719	1073.167602539063	-762.3890380859376	-234.435043334961	1159.379150390625	-650.7310791015626	-121.1439895629883	1071.87451171875	-530.2314453125001	-82.61132049560548	1085.088134765625	-557.5449829101564	-55.12715911865236	1052.299194335938	-514.5386962890626	15.2592363357544	1038.22119140625	-512.3773193359376	13.85146808624268	964.6694335937502	-540.6522216796876	224.0712890625001	1049.315673828125	-703.3278198242189	248.0825653076172	1054.864624023438	-628.3330688476564	295.1108398437501	1087.882690429688	-729.3367919921876	-415.4841918945314	734.1989135742189	-924.0253906250002	-407.1821594238282	745.3018188476564	-673.8752441406251	-541.6365966796876	838.2200317382815	-798.140808105469	-558.2525634765626	810.5625610351565	-825.104675292969	-559.6928100585939	812.549255371094	-767.8460083007814	-404.7727661132814	543.3318481445314	-1020.263122558594	-345.2230224609376	483.5628356933595	-1029.578979492188	-307.7714233398438	497.267791748047	-999.7187500000002	-351.7043762207032	423.3958740234376	-1039.3349609375	-334.7310485839844	338.4942321777344	-1045.855224609375	-327.4981994628907	296.9966125488282	-913.480163574219	-408.1818847656251	232.4978637695313	-1004.162475585938	-461.2528686523439	277.6476745605469	-1057.882080078125	-457.3352355957032	238.1001281738282	-1038.146240234375	-535.7443847656251	226.2010803222657	-1009.746948242188	-686.2724609375001	266.2994995117188	-1041.071533203125	-669.1901855468751	259.3701477050782	-954.2034912109377	-701.8941040039064	333.5502624511719	-1013.166870117188	-764.8409423828126	158.3532257080078	-920.7175292968752	-770.8648681640627	137.7071228027344	-965.207458496094	-792.718688964844	165.5310974121094	-1021.70166015625	-402.8875732421876	597.3168334960939	-611.3555908203126	-336.7020263671876	593.9887084960939	-616.3553466796876	-321.8132019042969	622.5356445312501	-627.9403076171876	-291.8240051269532	523.7136840820314	-625.5383911132814	-202.0656127929688	419.5353393554689	-671.4812011718751	-181.1151123046875	440.215057373047	-792.258728027344	-194.4874572753907	295.1553649902344	-765.9982299804689	-268.9025573730469	233.8636016845704	-713.7697753906251	-242.0261383056641	221.6866149902344	-752.8801879882814	-274.8767089843751	197.6291046142579	-794.2941894531252	-387.859588623047	109.698356628418	-763.2047119140626	-355.2124633789063	140.5071411132813	-843.819519042969	-448.1216125488282	97.81801605224612	-823.8145751953127	-246.7745971679688	56.24974441528322	-835.7983398437502	-245.8866729736329	56.04374313354494	-793.2991333007815	-283.0878906250001	34.72474670410157	-741.2987060546876	-224.9370574951172	1324.32080078125	-682.0558471679689	
679	3.39	-104.4297866821289	1392.76171875	-760.4016723632814	-263.7827148437501	1301.722045898438	-838.5769653320315	-320.1300964355469	1214.019165039063	-783.7987060546877	-488.8574218750001	944.420593261719	-792.0437011718752	-212.2305755615235	1105.133178710938	-783.1364746093752	-219.2141571044922	1180.382934570313	-904.746276855469	-83.0000686645508	1096.412231445313	-1010.124084472656	-52.93259429931642	1111.463745117188	-973.680358886719	-14.90963745117188	1079.959716796875	-1009.228454589844	65.05358886718751	1059.05322265625	-997.0334472656252	38.44578170776368	988.068298339844	-954.857116699219	240.0428466796876	1053.2666015625	-812.179382324219	294.1085815429688	1058.894897460938	-869.785339355469	297.4162597656251	1074.930297851563	-762.6904907226564	-234.525863647461	1160.779907226563	-650.7329101562501	-121.2073135375977	1073.30078125	-530.0588378906251	-82.68120574951173	1086.468994140625	-557.4616699218751	-55.18716049194337	1053.598266601563	-514.5363159179689	15.19893550872803	1039.712036132813	-512.4787597656251	13.79891300201416	965.975280761719	-540.6838378906251	223.8733215332032	1050.838989257813	-703.1609497070314	247.9678649902344	1056.58251953125	-628.3193969726564	295.1272583007813	1089.682006835938	-729.2250976562501	-415.403778076172	735.3331909179689	-924.0496826171877	-406.9656677246095	746.0771484375001	-674.0054321289064	-541.4940795898439	839.2048950195315	-798.1607666015627	-558.0994262695314	811.7263183593752	-825.1955566406252	-559.5574951171876	813.6536254882815	-767.9108886718751	-404.6012573242189	544.0106201171876	-1019.782531738281	-345.1483154296876	484.2080993652345	-1029.401000976563	-308.4078369140626	498.0310058593751	-999.5784912109377	-351.5410461425782	424.4146728515626	-1039.25048828125	-334.4328308105469	339.1611633300782	-1045.7431640625	-327.2607116699219	297.9865722656251	-913.402526855469	-407.4086303710939	233.0569458007813	-1003.78857421875	-460.7888793945314	278.4964599609376	-1057.735107421875	-457.0646972656251	239.0007781982422	-1038.091796875	-535.2010498046876	227.1186981201172	-1009.207275390625	-685.6358032226564	267.2382507324219	-1040.892700195313	-668.9423828125001	260.3213195800782	-954.1485595703127	-701.8547973632814	334.7823791503907	-1013.26123046875	-764.5527343750001	159.4282989501953	-920.628112792969	-770.6281738281252	138.8449096679688	-965.0640258789065	-792.1663818359377	166.3300018310547	-1021.726013183594	-402.7741699218751	598.2128295898439	-611.3825683593751	-336.6649475097657	594.5687255859376	-616.4554443359376	-321.7069396972657	623.2329711914064	-627.9755249023439	-291.9619140625001	524.2447509765626	-625.5337524414064	-202.3916320800782	419.8072509765626	-671.5227661132814	-181.3167877197266	440.410369873047	-792.2754516601565	-194.6113586425782	295.3753356933594	-765.9016113281251	-269.0670776367188	234.0558471679688	-713.7670288085939	-242.1530303955079	221.8452148437501	-752.8644409179689	-275.0702514648438	197.7572937011719	-794.2707519531252	-387.8213806152345	109.7238464355469	-763.2163696289064	-355.3070983886719	140.5490417480469	-843.9125976562502	-448.1642150878907	97.84376525878909	-823.8183593750002	-246.6384277343751	56.15429306030275	-835.744079589844	-245.4849700927735	55.83896255493165	-793.2921142578127	-283.1039123535157	34.79939270019532	-741.3187255859376	-225.2871398925782	1325.759765625	-681.6615600585939	
